<?xml version="1.0" encoding="UTF-8"?>
<svg width="24px" height="24px" viewBox="0 0 24 24" version="1.1" xmlns="http://www.w3.org/2000/svg">
    <g stroke="none" stroke-width="1" fill="none" fill-rule="evenodd">
        <path d="M12,2 C6.4771525,2 2,6.4771525 2,12 C2,16.4192547 4.86599325,20.1668277 8.83951491,21.4898762 C9.33958107,21.5810251 9.52557413,21.2729446 9.52557413,21.0011642 C9.52557413,20.7551056 9.51261663,19.9875523 9.51261663,19.1896346 C7,19.7891351 6.35089434,18.5442595 6.15089434,17.9218546 C6.03781443,17.6076113 5.55081308,16.5380714 5.12581308,16.3370714 C4.77581308,16.1650714 4.27581308,15.6620714 5.11281308,15.6750714 C5.95081308,15.6880714 6.47581308,16.4750714 6.60081308,16.7370714 C7.55081308,18.5370714 9.11281308,18.0870714 9.52557413,17.8870714 C9.60057413,17.3250714 9.80057413,16.9370714 10.0005741,16.7370714 C7.30057413,16.4870714 4.47581308,15.4870714 4.47581308,11.4870714 C4.47581308,10.3870714 4.87581308,9.48707144 5.67581308,8.78707144 C5.57581308,8.53707144 5.22581308,7.23707144 5.77581308,5.73707144 C5.77581308,5.73707144 6.87581308,5.43707144 9.52557413,6.73707144 C10.3255741,6.93707144 11.1255741,7.03707144 11.9255741,7.03707144 C12.7255741,7.03707144 13.5255741,6.93707144 14.3255741,6.73707144 C16.9755741,5.43707144 18.0755741,5.73707144 18.0755741,5.73707144 C18.6255741,7.23707144 18.2755741,8.53707144 18.1755741,8.78707144 C18.9755741,9.48707144 19.3755741,10.3870714 19.3755741,11.4870714 C19.3755741,15.4870714 16.5505741,16.4870714 13.8505741,16.7370714 C14.2755741,17.0370714 14.6255741,17.7370714 14.6255741,18.7370714 C14.6255741,20.2370714 14.6125741,21.5370714 14.6125741,21.0011642 C14.6125741,21.2729446 14.7985672,21.5810251 15.2986333,21.4898762 C19.272155,20.1668277 22.1381482,16.4192547 22.1381482,12 C22.1381482,6.4771525 17.6608475,2 12.1381482,2 L12,2 Z" fill="#000000"></path>
    </g>
</svg> 