<svg width="1440" height="1156" viewBox="0 0 1440 1156" fill="none" xmlns="http://www.w3.org/2000/svg">
<mask id="mask0_5_13" style="mask-type:alpha" maskUnits="userSpaceOnUse" x="187" y="234" width="1066" height="768">
<path d="M607.766 461.511C612.727 398.012 589.246 332.86 537.322 286.558C457.618 215.783 335.25 216.445 256.207 288.873C166.911 370.231 164.596 508.805 248.931 593.139C294.571 638.448 355.424 658.953 414.954 653.992C421.899 653.662 429.175 652.669 436.12 651.347C441.412 649.693 446.373 648.37 451.664 647.709C485.068 642.748 520.455 653 546.251 678.797C556.835 689.38 564.772 701.286 570.064 714.184C574.363 723.775 576.347 734.028 577.34 744.611C577.67 747.587 578.001 750.564 578.662 753.54C580.978 765.777 585.277 777.683 591.891 788.928C596.522 796.534 602.475 804.141 609.089 810.756C652.745 854.742 724.181 853.75 767.175 808.441C805.87 767.431 806.862 702.278 769.49 660.276C761.553 651.016 752.292 643.74 742.701 638.118C731.457 631.503 719.551 627.204 707.314 624.889C704.337 624.227 701.361 623.897 698.384 623.566C688.132 622.243 677.549 620.259 667.958 616.29C655.06 610.998 643.154 603.061 632.57 592.478C608.097 568.335 597.514 534.932 600.821 503.182C601.041 500.977 601.556 498.772 602.07 496.568C602.327 495.466 602.585 494.363 602.805 493.261C603.797 489.623 604.459 486.315 605.12 482.677C606.112 475.732 607.105 468.456 607.766 461.511Z" fill="url(#paint0_linear_5_13)"/>
<path d="M832.234 774.489C827.273 837.988 850.754 903.14 902.678 949.442C982.382 1020.22 1104.75 1019.56 1183.79 947.127C1273.09 865.769 1275.4 727.195 1191.07 642.861C1145.43 597.551 1084.58 577.047 1025.05 582.007C1018.1 582.338 1010.82 583.33 1003.88 584.653C998.588 586.307 993.627 587.63 988.335 588.291C954.932 593.252 919.545 583 893.748 557.203C883.165 546.62 875.228 534.714 869.936 521.816C865.637 512.225 863.653 501.972 862.66 491.389C862.33 488.413 861.999 485.436 861.337 482.459C859.022 470.223 854.723 458.317 848.109 447.072C843.478 439.465 837.525 431.859 830.911 425.244C787.255 381.258 715.819 382.25 672.825 427.559C634.13 468.569 633.138 533.722 670.51 575.724C678.447 584.984 687.707 592.26 697.298 597.882C708.543 604.497 720.449 608.796 732.686 611.111C735.662 611.773 738.639 612.103 741.615 612.434C751.868 613.757 762.451 615.741 772.042 619.71C784.94 625.001 796.846 632.939 807.429 643.522C831.903 667.665 842.486 701.068 839.179 732.818C838.958 735.022 838.444 737.227 837.93 739.432C837.672 740.534 837.415 741.637 837.195 742.739C836.202 746.377 835.541 749.684 834.88 753.322C833.887 760.268 832.895 767.543 832.234 774.489Z" fill="url(#paint1_linear_5_13)"/>
<path d="M984.898 559.745C933.707 559.745 892.209 518.247 892.209 467.056C892.209 415.865 933.707 374.367 984.898 374.367C1036.09 374.367 1077.59 415.865 1077.59 467.056C1077.59 518.247 1036.09 559.745 984.898 559.745Z" fill="url(#paint2_linear_5_13)"/>
<path d="M373.149 771.606C373.149 822.797 414.647 864.296 465.838 864.296C517.029 864.296 558.527 822.797 558.527 771.606C558.527 720.416 517.029 678.917 465.838 678.917C414.647 678.917 373.149 720.416 373.149 771.606Z" fill="url(#paint3_linear_5_13)"/>
</mask>
<g mask="url(#mask0_5_13)">
<g filter="url(#filter0_ii_5_13)">
<path fill-rule="evenodd" clip-rule="evenodd" d="M832.234 774.489C827.273 837.988 850.754 903.14 902.678 949.442C982.382 1020.22 1104.75 1019.56 1183.79 947.127C1273.09 865.769 1275.4 727.195 1191.07 642.861C1145.43 597.551 1084.58 577.047 1025.05 582.007C1018.1 582.338 1010.82 583.33 1003.88 584.653C998.588 586.307 993.627 587.63 988.335 588.291C954.932 593.252 919.545 583 893.748 557.203C883.165 546.62 875.228 534.714 869.936 521.816C865.637 512.225 863.652 501.972 862.66 491.389L862.66 491.388C862.329 488.412 861.999 485.436 861.337 482.459C859.022 470.223 854.723 458.317 848.108 447.072C843.478 439.465 837.525 431.859 830.911 425.244C787.255 381.258 715.819 382.25 672.825 427.559C634.13 468.569 633.138 533.722 670.51 575.724C678.447 584.984 687.707 592.26 697.298 597.882C708.543 604.497 720.449 608.796 732.686 611.111C735.662 611.772 738.638 612.103 741.614 612.434L741.615 612.434C751.868 613.757 762.451 615.741 772.042 619.71C784.94 625.002 796.846 632.939 807.429 643.522C831.903 667.665 842.486 701.068 839.179 732.817C838.958 735.022 838.444 737.226 837.93 739.431L837.93 739.431L837.929 739.432C837.672 740.534 837.415 741.637 837.194 742.739C836.202 746.377 835.541 749.684 834.879 753.322C833.887 760.268 832.895 767.544 832.234 774.489ZM607.766 461.511C612.727 398.012 589.245 332.86 537.322 286.558C457.617 215.783 335.249 216.445 256.206 288.873C166.911 370.231 164.596 508.805 248.931 593.139C294.57 638.448 355.424 658.953 414.954 653.992C421.899 653.662 429.175 652.669 436.12 651.347C441.412 649.693 446.373 648.37 451.664 647.709C485.067 642.748 520.455 653 546.251 678.797C556.834 689.38 564.772 701.286 570.063 714.184C574.363 723.775 576.347 734.028 577.339 744.611C577.67 747.587 578.001 750.564 578.662 753.54C580.977 765.777 585.277 777.683 591.891 788.928C596.521 796.534 602.474 804.141 609.089 810.756C652.744 854.742 724.181 853.75 767.175 808.441C805.87 767.431 806.862 702.278 769.49 660.276C761.553 651.016 752.292 643.74 742.701 638.118C731.457 631.503 719.551 627.204 707.314 624.889C704.338 624.227 701.361 623.897 698.385 623.566L698.384 623.566C688.132 622.243 677.549 620.259 667.958 616.29C655.059 610.998 643.153 603.061 632.57 592.478C608.097 568.335 597.514 534.932 600.821 503.182C601.041 500.977 601.556 498.773 602.07 496.568L602.071 496.563C602.328 495.462 602.585 494.361 602.805 493.261C603.797 489.623 604.459 486.315 605.12 482.677C606.112 475.732 607.105 468.456 607.766 461.511ZM984.897 559.745C933.706 559.745 892.208 518.247 892.208 467.056C892.208 415.865 933.706 374.367 984.897 374.367C1036.09 374.367 1077.59 415.865 1077.59 467.056C1077.59 518.247 1036.09 559.745 984.897 559.745ZM373.149 771.606C373.149 822.797 414.647 864.296 465.838 864.296C517.029 864.296 558.527 822.797 558.527 771.606C558.527 720.415 517.029 678.917 465.838 678.917C414.647 678.917 373.149 720.415 373.149 771.606Z" fill="url(#paint4_linear_5_13)"/>
<path fill-rule="evenodd" clip-rule="evenodd" d="M832.234 774.489C827.273 837.988 850.754 903.14 902.678 949.442C982.382 1020.22 1104.75 1019.56 1183.79 947.127C1273.09 865.769 1275.4 727.195 1191.07 642.861C1145.43 597.551 1084.58 577.047 1025.05 582.007C1018.1 582.338 1010.82 583.33 1003.88 584.653C998.588 586.307 993.627 587.63 988.335 588.291C954.932 593.252 919.545 583 893.748 557.203C883.165 546.62 875.228 534.714 869.936 521.816C865.637 512.225 863.652 501.972 862.66 491.389L862.66 491.388C862.329 488.412 861.999 485.436 861.337 482.459C859.022 470.223 854.723 458.317 848.108 447.072C843.478 439.465 837.525 431.859 830.911 425.244C787.255 381.258 715.819 382.25 672.825 427.559C634.13 468.569 633.138 533.722 670.51 575.724C678.447 584.984 687.707 592.26 697.298 597.882C708.543 604.497 720.449 608.796 732.686 611.111C735.662 611.772 738.638 612.103 741.614 612.434L741.615 612.434C751.868 613.757 762.451 615.741 772.042 619.71C784.94 625.002 796.846 632.939 807.429 643.522C831.903 667.665 842.486 701.068 839.179 732.817C838.958 735.022 838.444 737.226 837.93 739.431L837.93 739.431L837.929 739.432C837.672 740.534 837.415 741.637 837.194 742.739C836.202 746.377 835.541 749.684 834.879 753.322C833.887 760.268 832.895 767.544 832.234 774.489ZM607.766 461.511C612.727 398.012 589.245 332.86 537.322 286.558C457.617 215.783 335.249 216.445 256.206 288.873C166.911 370.231 164.596 508.805 248.931 593.139C294.57 638.448 355.424 658.953 414.954 653.992C421.899 653.662 429.175 652.669 436.12 651.347C441.412 649.693 446.373 648.37 451.664 647.709C485.067 642.748 520.455 653 546.251 678.797C556.834 689.38 564.772 701.286 570.063 714.184C574.363 723.775 576.347 734.028 577.339 744.611C577.67 747.587 578.001 750.564 578.662 753.54C580.977 765.777 585.277 777.683 591.891 788.928C596.521 796.534 602.474 804.141 609.089 810.756C652.744 854.742 724.181 853.75 767.175 808.441C805.87 767.431 806.862 702.278 769.49 660.276C761.553 651.016 752.292 643.74 742.701 638.118C731.457 631.503 719.551 627.204 707.314 624.889C704.338 624.227 701.361 623.897 698.385 623.566L698.384 623.566C688.132 622.243 677.549 620.259 667.958 616.29C655.059 610.998 643.153 603.061 632.57 592.478C608.097 568.335 597.514 534.932 600.821 503.182C601.041 500.977 601.556 498.773 602.07 496.568L602.071 496.563C602.328 495.462 602.585 494.361 602.805 493.261C603.797 489.623 604.459 486.315 605.12 482.677C606.112 475.732 607.105 468.456 607.766 461.511ZM984.897 559.745C933.706 559.745 892.208 518.247 892.208 467.056C892.208 415.865 933.706 374.367 984.897 374.367C1036.09 374.367 1077.59 415.865 1077.59 467.056C1077.59 518.247 1036.09 559.745 984.897 559.745ZM373.149 771.606C373.149 822.797 414.647 864.296 465.838 864.296C517.029 864.296 558.527 822.797 558.527 771.606C558.527 720.415 517.029 678.917 465.838 678.917C414.647 678.917 373.149 720.415 373.149 771.606Z" fill="#B9FF66" fill-opacity="0.3"/>
</g>
</g>
<defs>
<filter id="filter0_ii_5_13" x="158.045" y="194.601" width="1136.71" height="858.775" filterUnits="userSpaceOnUse" color-interpolation-filters="sRGB">
<feFlood flood-opacity="0" result="BackgroundImageFix"/>
<feBlend mode="normal" in="SourceGraphic" in2="BackgroundImageFix" result="shape"/>
<feColorMatrix in="SourceAlpha" type="matrix" values="0 0 0 0 0 0 0 0 0 0 0 0 0 0 0 0 0 0 127 0" result="hardAlpha"/>
<feOffset dx="-29.3625" dy="51.3844"/>
<feGaussianBlur stdDeviation="62.3954"/>
<feComposite in2="hardAlpha" operator="arithmetic" k2="-1" k3="1"/>
<feColorMatrix type="matrix" values="0 0 0 0 1 0 0 0 0 1 0 0 0 0 1 0 0 0 0.87 0"/>
<feBlend mode="lighten" in2="shape" result="effect1_innerShadow_5_13"/>
<feColorMatrix in="SourceAlpha" type="matrix" values="0 0 0 0 0 0 0 0 0 0 0 0 0 0 0 0 0 0 127 0" result="hardAlpha"/>
<feOffset dx="42.16" dy="-39.408"/>
<feGaussianBlur stdDeviation="24.5928"/>
<feComposite in2="hardAlpha" operator="arithmetic" k2="-1" k3="1"/>
<feColorMatrix type="matrix" values="0 0 0 0 0.168627 0 0 0 0 0.180392 0 0 0 0 0.239216 0 0 0 0.9 0"/>
<feBlend mode="multiply" in2="effect1_innerShadow_5_13" result="effect2_innerShadow_5_13"/>
</filter>
<linearGradient id="paint0_linear_5_13" x1="368" y1="1174.8" x2="1097.6" y2="406.8" gradientUnits="userSpaceOnUse">
<stop offset="0.243977" stop-opacity="0"/>
<stop offset="1"/>
</linearGradient>
<linearGradient id="paint1_linear_5_13" x1="368" y1="1174.8" x2="1097.6" y2="406.8" gradientUnits="userSpaceOnUse">
<stop offset="0.243977" stop-opacity="0"/>
<stop offset="1"/>
</linearGradient>
<linearGradient id="paint2_linear_5_13" x1="368" y1="1174.8" x2="1097.6" y2="406.8" gradientUnits="userSpaceOnUse">
<stop offset="0.243977" stop-opacity="0"/>
<stop offset="1"/>
</linearGradient>
<linearGradient id="paint3_linear_5_13" x1="368" y1="1174.8" x2="1097.6" y2="406.8" gradientUnits="userSpaceOnUse">
<stop offset="0.243977" stop-opacity="0"/>
<stop offset="1"/>
</linearGradient>
<linearGradient id="paint4_linear_5_13" x1="1742.71" y1="480.793" x2="1341.11" y2="897.664" gradientUnits="userSpaceOnUse">
<stop stop-color="#46A536"/>
<stop offset="0.5" stop-color="#48D805"/>
<stop offset="1" stop-color="#93FC00"/>
</linearGradient>
</defs>
</svg>
